<?xml version="1.0" standalone="no"?>
<!DOCTYPE svg PUBLIC "-//W3C//DTD SVG 20010904//EN"
 "http://www.w3.org/TR/2001/REC-SVG-20010904/DTD/svg10.dtd">
<svg version="1.0" xmlns="http://www.w3.org/2000/svg"
 width="476.000000pt" height="145.000000pt" viewBox="0 0 476.000000 145.000000"
 preserveAspectRatio="xMidYMid meet">

<g transform="translate(0.000000,145.000000) scale(0.100000,-0.100000)"
fill="#000000" stroke="none">
<path d="M0 725 l0 -725 2380 0 2380 0 0 725 0 725 -2380 0 -2380 0 0 -725z
m1011 273 c9 -16 7 -26 -10 -49 -19 -25 -21 -42 -21 -161 0 -122 2 -134 20
-146 11 -7 20 -23 20 -37 0 -14 -9 -33 -20 -42 -19 -16 -20 -30 -20 -190 0
-95 -4 -173 -9 -173 -12 0 -21 89 -21 225 0 108 -2 122 -20 138 -11 9 -20 24
-20 33 0 23 19 54 33 54 9 0 11 35 9 137 -3 122 -5 140 -23 160 -25 26 -21 54
9 69 30 15 60 7 73 -18z m92 -49 c7 -29 16 -40 47 -54 36 -16 40 -16 69 1 l31
18 42 -42 43 -42 -19 -34 c-17 -31 -17 -38 -4 -78 12 -37 20 -44 51 -52 l37
-10 0 -63 c0 -60 -1 -63 -27 -69 -16 -3 -33 -7 -39 -9 -5 -2 -16 -22 -23 -45
-11 -38 -10 -47 5 -76 l19 -34 -41 -41 -40 -40 -32 18 c-30 17 -32 17 -76 -5
-31 -15 -46 -28 -46 -41 0 -37 -12 -51 -41 -51 -29 0 -29 0 -30 65 -1 36 -2
70 -3 77 -1 7 13 15 29 18 106 23 185 122 185 234 0 101 -71 200 -163 225
l-47 14 0 79 0 79 32 -3 c28 -3 34 -8 41 -39z m-243 19 c0 -7 -25 -26 -55 -42
-62 -32 -127 -99 -158 -163 -22 -45 -37 -55 -37 -25 0 28 55 114 102 159 65
62 148 102 148 71z m38 -160 c3 -62 1 -69 -28 -101 -26 -30 -30 -42 -30 -92 0
-54 3 -61 41 -102 25 -27 38 -50 35 -59 -3 -9 -6 -67 -6 -130 0 -69 -4 -114
-10 -114 -6 0 -10 49 -10 127 l0 126 -40 37 -40 37 0 80 c0 72 2 82 25 103 20
18 25 33 25 69 0 108 33 124 38 19z m-128 2 c11 -11 20 -28 20 -38 0 -11 -9
-27 -20 -37 -18 -16 -20 -31 -20 -125 l0 -108 45 -36 45 -37 0 -100 c0 -113
-2 -115 -71 -71 -84 54 -158 159 -175 251 -4 18 -15 42 -25 52 -34 34 -14 89
31 89 42 0 65 -54 35 -84 -45 -45 25 -197 124 -270 27 -20 51 -36 55 -36 3 0
6 33 6 72 l0 73 -50 46 -50 46 0 110 c0 98 -2 112 -21 129 -23 21 -19 60 8 82
23 17 40 15 63 -8z m3070 -93 l5 -79 22 26 c45 51 155 24 184 -45 19 -47 18
-227 -1 -239 -8 -5 -19 -8 -25 -7 -5 2 -12 54 -15 116 -4 97 -8 115 -24 127
-32 23 -93 18 -121 -11 -23 -22 -25 -31 -25 -123 0 -54 -2 -101 -5 -104 -3 -3
-16 -3 -29 -1 l-24 5 0 202 c0 110 2 205 5 209 3 5 15 7 26 5 20 -3 22 -11 27
-81z m-739 56 c6 -6 9 -19 6 -27 -5 -12 -22 -16 -72 -16 l-65 0 0 -180 0 -180
-24 0 c-30 0 -35 29 -29 159 3 52 2 118 -2 148 l-6 53 -59 0 c-32 0 -61 4 -64
9 -9 14 4 39 22 44 39 10 281 2 293 -10z m-2039 -12 c8 -11 27 -21 43 -23 19
-2 33 -11 40 -25 5 -13 13 -23 18 -23 5 0 6 -9 2 -20 -4 -13 1 -25 14 -37 24
-20 28 -63 7 -63 -16 0 -26 -21 -26 -54 0 -34 -28 -66 -58 -66 -15 0 -35 -9
-45 -20 -23 -27 -37 -17 -37 26 0 23 5 34 14 34 8 0 28 12 45 26 27 22 31 33
31 73 0 54 -17 83 -60 101 -25 10 -30 18 -30 45 0 48 19 60 42 26z m1550 -3
c8 -7 37 -62 63 -123 27 -60 63 -143 81 -183 l33 -73 -42 3 c-36 3 -45 8 -66
41 l-24 37 -92 0 -92 0 -16 -40 -15 -40 -95 0 -94 0 -52 70 c-29 38 -57 72
-62 76 -6 3 -21 -4 -35 -17 -20 -18 -24 -32 -24 -76 l0 -53 -45 0 -45 0 0 174
c0 96 3 181 6 190 4 10 18 16 40 16 37 0 42 -11 47 -120 l2 -55 86 88 c72 73
90 87 117 87 18 0 32 -5 32 -11 0 -6 -27 -40 -60 -77 -33 -37 -60 -71 -60 -77
0 -15 143 -195 156 -195 9 0 64 98 64 114 0 3 11 29 24 58 13 29 34 77 47 106
34 79 82 110 121 80z m-755 -188 c46 -102 83 -186 83 -188 0 -2 -19 -2 -42 0
-38 3 -45 7 -63 40 -22 42 -36 45 -144 40 l-63 -4 -16 -39 c-13 -35 -19 -39
-49 -39 -28 0 -33 3 -33 24 0 13 20 62 44 108 24 45 51 108 61 138 10 30 27
68 37 83 17 24 26 28 61 25 l41 -3 83 -185z m1458 97 c42 -23 85 -91 85 -134
0 -23 -1 -23 -125 -23 -84 0 -125 -4 -125 -11 0 -6 15 -26 34 -45 28 -28 41
-34 78 -34 24 0 54 7 66 16 18 13 26 13 38 3 13 -10 13 -14 -2 -30 -45 -49
-151 -48 -209 2 -41 37 -59 86 -52 148 4 38 12 52 47 83 59 53 104 60 165 25z
m353 -1 c38 -20 49 -40 32 -61 -10 -12 -16 -11 -41 7 -34 26 -88 27 -124 4
-51 -33 -50 -135 1 -175 30 -24 107 -21 135 5 15 14 21 14 34 4 22 -18 3 -45
-47 -65 -160 -64 -290 133 -168 255 51 51 112 60 178 26z"/>
<path d="M944 989 c-10 -17 13 -36 27 -22 12 12 4 33 -11 33 -5 0 -12 -5 -16
-11z"/>
<path d="M945 610 c-4 -7 -3 -16 3 -22 14 -14 45 -2 40 15 -6 16 -34 21 -43 7z"/>
<path d="M715 780 c-8 -13 3 -30 20 -30 14 0 27 24 18 34 -10 9 -31 7 -38 -4z"/>
<path d="M580 615 c-10 -12 -10 -18 0 -29 16 -20 42 -8 38 17 -4 26 -21 32
-38 12z"/>
<path d="M1126 501 c-4 -5 -2 -12 3 -15 5 -4 12 -2 15 3 4 5 2 12 -3 15 -5 4
-12 2 -15 -3z"/>
<path d="M2535 610 c-16 -39 -26 -73 -22 -76 8 -8 104 -10 112 -3 6 7 -42 136
-55 144 -4 2 -20 -27 -35 -65z"/>
<path d="M1693 622 c-12 -31 -25 -65 -29 -74 -5 -16 1 -18 55 -18 34 0 61 4
61 10 0 15 -53 140 -59 140 -3 0 -16 -26 -28 -58z"/>
<path d="M3223 633 c-22 -4 -73 -56 -73 -74 0 -5 45 -9 100 -9 59 0 100 4 100
10 0 5 -12 23 -27 39 -29 31 -61 42 -100 34z"/>
</g>
</svg>
