<svg fill="#FF5500" viewBox="0 0 24 24" xmlns="http://www.w3.org/2000/svg">
  <path d="M12 2C7.58 2 4 3.34 4 5v14c0 1.66 3.58 3 8 3s8-1.34 8-3V5c0-1.66-3.58-3-8-3zm0 2c3.87 0 6 1.14 6 1.5S15.87 7 12 7 6 5.86 6 5.5 8.13 4 12 4zM6 7.66C7.4 8.5 9.7 9 12 9s4.6-.5 6-1.34v3.51c-.63.53-2.68 1.33-6 1.33s-5.37-.8-6-1.33V7.66zm0 5.51C7.4 13.99 9.7 14.5 12 14.5s4.6-.51 6-1.33v3.5c-.63.53-2.68 1.33-6 1.33s-5.37-.8-6-1.33v-3.5zm0 5.5c1.4.83 3.7 1.33 6 1.33s4.6-.5 6-1.33V20c0 .36-2.13 1.5-6 1.5s-6-1.14-6-1.5v-1.33z"/>
</svg>
